<svg id="Capa_1" data-name="Capa 1" xmlns="http://www.w3.org/2000/svg" viewBox="0 0 434.51 518.81"><defs><style>.cls-1{fill:#e3e3e2;}.cls-1,.cls-2,.cls-3,.cls-4{stroke:#f0f0f0;stroke-miterlimit:10;}.cls-2{fill:#ce2245;}.cls-3{fill:#d72348;}.cls-4{fill:#e52452;}</style></defs><polygon class="cls-1" points="2.12 280.88 2.12 410.25 174.64 496.53 174.64 367.13 131.52 345.56 131.5 345.56 88.37 324 45.24 302.44 2.12 280.88"/><polygon class="cls-2" points="2.12 237.75 2.28 237.75 45.24 259.25 45.31 259.27 45.4 259.31 88.37 280.81 88.46 280.83 88.53 280.88 131.52 302.37 131.59 302.39 131.65 302.44 131.68 302.44 174.64 323.93 174.64 280.88 131.52 259.31 131.5 259.31 88.37 237.75 45.24 216.19 2.12 237.75"/><polygon class="cls-1" points="2.12 151.5 2.12 237.75 45.24 216.19 88.37 237.75 131.5 259.31 131.52 259.31 174.64 280.88 174.64 237.75 131.52 216.19 131.5 216.19 88.37 194.62 45.24 173.06 2.12 151.5"/><polygon class="cls-1" points="260.89 237.75 260.89 496.53 433.4 410.27 433.4 151.5 390.27 173.06 304.02 216.19 260.89 237.75"/><polygon class="cls-3" points="217.84 216.14 217.93 216.19 217.93 518 260.89 496.53 260.89 237.75 304.02 216.19 390.27 173.06 433.4 151.5 433.4 108.37 390.27 129.94 304.02 173.06 260.89 194.62 217.84 216.14"/><polygon class="cls-2" points="217.77 173.06 217.77 173.08 217.79 173.08 217.79 216.14 217.84 216.14 260.89 194.62 304.02 173.06 390.27 129.94 433.4 108.37 390.27 86.81 347.14 108.37 304.02 129.94 260.89 151.5 217.77 173.06"/><polygon class="cls-1" points="45.24 86.81 45.24 86.83 45.27 86.83 88.35 108.37 88.37 108.37 88.37 108.4 88.39 108.4 131.47 129.94 131.52 129.94 174.62 151.5 174.64 151.5 174.64 151.52 174.66 151.52 217.75 173.06 217.77 173.06 260.89 151.5 304.02 129.94 347.14 108.37 390.27 86.81 304.02 43.69 260.89 22.12 217.77 0.56 174.64 22.12 131.52 43.69 131.5 43.69 88.37 65.25 45.24 86.81"/><polygon class="cls-2" points="2.16 108.37 2.28 108.37 45.24 129.87 45.31 129.89 45.4 129.94 88.37 151.43 88.46 151.45 88.53 151.5 131.52 172.99 131.59 173.02 131.65 173.06 131.68 173.06 174.64 194.56 174.71 194.58 174.8 194.62 217.77 216.12 217.77 173.06 217.75 173.06 174.66 151.52 174.64 151.52 174.64 151.5 174.62 151.5 131.52 129.96 131.5 129.94 131.47 129.94 88.39 108.4 88.37 108.4 88.37 108.37 88.35 108.37 45.27 86.83 45.24 86.83 2.16 108.37"/><polygon class="cls-4" points="174.8 237.75 174.8 324 174.64 324 131.52 302.44 131.5 302.44 88.37 280.88 45.24 259.31 2.28 237.84 2.28 280.88 45.24 302.37 45.31 302.39 45.4 302.44 88.37 323.93 88.46 323.96 88.53 324 131.52 345.5 131.59 345.52 131.65 345.56 131.68 345.56 174.64 367.06 174.71 367.08 174.8 367.13 174.8 496.59 217.75 518.07 217.77 518.07 217.77 216.19 217.75 216.16 174.66 194.65 174.64 194.65 174.64 194.62 174.62 194.62 131.52 173.08 131.5 173.06 131.47 173.06 88.37 151.52 88.37 151.5 88.35 151.5 45.27 129.96 45.24 129.96 45.24 129.94 45.22 129.94 2.28 108.46 2.28 151.5 45.24 172.99 45.31 173.02 45.4 173.06 88.37 194.56 88.46 194.58 88.53 194.62 131.52 216.12 131.59 216.14 131.65 216.19 131.68 216.19 174.64 237.68 174.71 237.7 174.8 237.75"/></svg>