<svg id="Capa_1" data-name="Capa 1" xmlns="http://www.w3.org/2000/svg" viewBox="0 0 438.57 523.68"><defs><style>.cls-1{fill:#454645;}.cls-1,.cls-2,.cls-3,.cls-4{stroke:#2a2b2a;stroke-miterlimit:10;}.cls-2{fill:#ce2245;}.cls-3{fill:#d72348;}.cls-4{fill:#e52452;}</style></defs><polygon class="cls-1" points="2.12 283.51 2.12 414.11 176.27 501.19 176.27 370.58 132.74 348.81 132.71 348.81 89.18 327.04 45.65 305.28 2.12 283.51"/><polygon class="cls-2" points="2.12 239.98 2.28 239.98 45.65 261.68 45.72 261.7 45.81 261.75 89.18 283.44 89.27 283.47 89.34 283.51 132.74 305.21 132.8 305.23 132.87 305.28 132.9 305.28 176.27 326.98 176.27 283.51 132.74 261.75 132.71 261.75 89.18 239.98 45.65 218.22 2.12 239.98"/><polygon class="cls-1" points="2.12 152.92 2.12 239.98 45.65 218.22 89.18 239.98 132.71 261.75 132.74 261.75 176.27 283.51 176.27 239.98 132.74 218.22 132.71 218.22 89.18 196.45 45.65 174.69 2.12 152.92"/><polygon class="cls-1" points="263.33 239.98 263.33 501.19 437.45 414.13 437.45 152.92 393.92 174.69 306.86 218.22 263.33 239.98"/><polygon class="cls-3" points="219.87 218.17 219.96 218.22 219.96 522.87 263.33 501.19 263.33 239.98 306.86 218.22 393.92 174.69 437.45 152.92 437.45 109.39 393.92 131.15 306.86 174.69 263.33 196.45 219.87 218.17"/><polygon class="cls-2" points="219.8 174.69 219.8 174.71 219.82 174.71 219.82 218.17 219.87 218.17 263.33 196.45 306.86 174.69 393.92 131.15 437.45 109.39 393.92 87.62 350.39 109.39 306.86 131.15 263.33 152.92 219.8 174.69"/><polygon class="cls-1" points="45.65 87.62 45.65 87.64 45.67 87.64 89.16 109.39 89.18 109.39 89.18 109.41 89.2 109.41 132.69 131.15 132.74 131.15 176.24 152.92 176.27 152.92 176.27 152.94 176.29 152.94 219.78 174.69 219.8 174.69 263.33 152.92 306.86 131.15 350.39 109.39 393.92 87.62 306.86 44.09 263.33 22.32 219.8 0.56 176.27 22.32 132.74 44.09 132.71 44.09 89.18 65.86 45.65 87.62"/><polygon class="cls-2" points="2.16 109.39 2.28 109.39 45.65 131.09 45.72 131.11 45.81 131.15 89.18 152.85 89.27 152.87 89.34 152.92 132.74 174.62 132.8 174.64 132.87 174.69 132.9 174.69 176.27 196.38 176.34 196.41 176.43 196.45 219.8 218.15 219.8 174.69 219.78 174.69 176.29 152.94 176.27 152.94 176.27 152.92 176.24 152.92 132.74 131.18 132.71 131.15 132.69 131.15 89.2 109.41 89.18 109.41 89.18 109.39 89.16 109.39 45.67 87.64 45.65 87.64 2.16 109.39"/><polygon class="cls-4" points="176.43 239.98 176.43 327.04 176.27 327.04 132.74 305.28 132.71 305.28 89.18 283.51 45.65 261.75 2.28 240.07 2.28 283.51 45.65 305.21 45.72 305.23 45.81 305.28 89.18 326.98 89.27 327 89.34 327.04 132.74 348.74 132.8 348.76 132.87 348.81 132.9 348.81 176.27 370.51 176.34 370.53 176.43 370.58 176.43 501.26 219.78 522.94 219.8 522.94 219.8 218.22 219.78 218.19 176.29 196.47 176.27 196.47 176.27 196.45 176.24 196.45 132.74 174.71 132.71 174.69 132.69 174.69 89.18 152.94 89.18 152.92 89.16 152.92 45.67 131.18 45.65 131.18 45.65 131.15 45.63 131.15 2.28 109.48 2.28 152.92 45.65 174.62 45.72 174.64 45.81 174.69 89.18 196.38 89.27 196.41 89.34 196.45 132.74 218.15 132.8 218.17 132.87 218.22 132.9 218.22 176.27 239.91 176.34 239.94 176.43 239.98"/></svg>